HIERARCHY
ROOT Haolin_V1:Solving:Hips
{
	OFFSET 0.000000 0.000000 0.000000
	CHANNELS 6 Xposition Yposition Zposition Xrotation Yrotation Zrotation
	JOINT Haolin_V1:Solving:Spine
	{
		OFFSET 0.000000 -12.731938 2.520517
		CHANNELS 6 Xposition Yposition Zposition Xrotation Yrotation Zrotation
		JOINT Haolin_V1:Solving:Spine1
		{
			OFFSET 0.000000 -8.486854 1.496462
			CHANNELS 6 Xposition Yposition Zposition Xrotation Yrotation Zrotation
			JOINT Haolin_V1:Solving:Spine2
			{
				OFFSET 0.000000 -8.584984 0.751091
				CHANNELS 6 Xposition Yposition Zposition Xrotation Yrotation Zrotation
				JOINT Haolin_V1:Solving:Spine3
				{
					OFFSET 0.000000 -8.617775 0.000000
					CHANNELS 6 Xposition Yposition Zposition Xrotation Yrotation Zrotation
					JOINT Haolin_V1:Solving:Neck
					{
						OFFSET 0.000000 -11.080002 -1.107998
						CHANNELS 6 Xposition Yposition Zposition Xrotation Yrotation Zrotation
						JOINT Haolin_V1:Solving:Neck1
						{
							OFFSET 0.000000 -8.314011 -0.727381
							CHANNELS 6 Xposition Yposition Zposition Xrotation Yrotation Zrotation
							JOINT Haolin_V1:Solving:Head
							{
								OFFSET 0.000000 -8.218975 -1.449226
								CHANNELS 6 Xposition Yposition Zposition Xrotation Yrotation Zrotation
								JOINT Haolin_V1:Solving:HeadEnd
								{
									OFFSET 0.000000 -9.728081 0.000002
									CHANNELS 6 Xposition Yposition Zposition Xrotation Yrotation Zrotation
									End Site
									{
										OFFSET 0.000000 -9.728081 0.000002
									}
								}
							}
						}
					}
					JOINT Haolin_V1:Solving:RightShoulder
					{
						OFFSET 0.000000 -7.914288 -5.288076
						CHANNELS 6 Xposition Yposition Zposition Xrotation Yrotation Zrotation
						JOINT Haolin_V1:Solving:RightArm
						{
							OFFSET -20.201836 -0.000008 0.000000
							CHANNELS 6 Xposition Yposition Zposition Xrotation Yrotation Zrotation
							JOINT Haolin_V1:Solving:RightForeArm
							{
								OFFSET -29.446457 -0.000008 0.000000
								CHANNELS 6 Xposition Yposition Zposition Xrotation Yrotation Zrotation
								JOINT Haolin_V1:Solving:RightHand
								{
									OFFSET -23.111885 -0.000008 0.000000
									CHANNELS 6 Xposition Yposition Zposition Xrotation Yrotation Zrotation
									JOINT Haolin_V1:Solving:RightHandThumb1
									{
										OFFSET -3.824379 2.925484 -2.843767
										CHANNELS 6 Xposition Yposition Zposition Xrotation Yrotation Zrotation
										End Site
										{
											OFFSET -5.557076 0.000000 -5.608460
										}
									}
									JOINT Haolin_V1:Solving:RightHandMiddle1
									{
										OFFSET -10.198334 -0.000004 0.065374
										CHANNELS 6 Xposition Yposition Zposition Xrotation Yrotation Zrotation
										End Site
										{
											OFFSET -7.895309 -0.000004 0.000000
										}
									}
								}
							}
						}
					}
					JOINT Haolin_V1:Solving:LeftShoulder
					{
						OFFSET 0.000000 -7.914288 -5.288076
						CHANNELS 6 Xposition Yposition Zposition Xrotation Yrotation Zrotation
						JOINT Haolin_V1:Solving:LeftArm
						{
							OFFSET 20.201836 -0.000008 0.000000
							CHANNELS 6 Xposition Yposition Zposition Xrotation Yrotation Zrotation
							JOINT Haolin_V1:Solving:LeftForeArm
							{
								OFFSET 29.446457 -0.000008 0.000000
								CHANNELS 6 Xposition Yposition Zposition Xrotation Yrotation Zrotation
								JOINT Haolin_V1:Solving:LeftHand
								{
									OFFSET 23.111885 -0.000008 0.000000
									CHANNELS 6 Xposition Yposition Zposition Xrotation Yrotation Zrotation
									JOINT Haolin_V1:Solving:LeftHandThumb1
									{
										OFFSET 3.824379 2.925484 -2.843767
										CHANNELS 6 Xposition Yposition Zposition Xrotation Yrotation Zrotation
										End Site
										{
											OFFSET 5.557076 0.000000 -5.608460
										}
									}
									JOINT Haolin_V1:Solving:LeftHandMiddle1
									{
										OFFSET 10.198334 -0.000004 0.065374
										CHANNELS 6 Xposition Yposition Zposition Xrotation Yrotation Zrotation
										End Site
										{
											OFFSET 7.895309 -0.000004 0.000000
										}
									}
								}
							}
						}
					}
				}
			}
		}
	}
	JOINT Haolin_V1:Solving:RightUpLeg
	{
		OFFSET -10.695510 0.000000 0.000000
		CHANNELS 6 Xposition Yposition Zposition Xrotation Yrotation Zrotation
		JOINT Haolin_V1:Solving:RightLeg
		{
			OFFSET 0.000000 46.236332 -0.000006
			CHANNELS 6 Xposition Yposition Zposition Xrotation Yrotation Zrotation
			JOINT Haolin_V1:Solving:RightFoot
			{
				OFFSET 0.000000 41.248135 -0.000006
				CHANNELS 6 Xposition Yposition Zposition Xrotation Yrotation Zrotation
				JOINT Haolin_V1:Solving:RightForeFoot
				{
					OFFSET 0.000000 3.207336 -0.000000
					CHANNELS 6 Xposition Yposition Zposition Xrotation Yrotation Zrotation
					JOINT Haolin_V1:Solving:RightToeBase
					{
						OFFSET 0.000000 0.000000 -12.560947
						CHANNELS 6 Xposition Yposition Zposition Xrotation Yrotation Zrotation
						JOINT Haolin_V1:Solving:RightToeBaseEnd
						{
							OFFSET 0.000000 0.000000 -3.517768
							CHANNELS 6 Xposition Yposition Zposition Xrotation Yrotation Zrotation
							End Site
							{
								OFFSET 0.000000 -3.517769 0.000004
							}
						}
					}
				}
			}
		}
	}
	JOINT Haolin_V1:Solving:LeftUpLeg
	{
		OFFSET 10.695510 0.000000 0.000000
		CHANNELS 6 Xposition Yposition Zposition Xrotation Yrotation Zrotation
		JOINT Haolin_V1:Solving:LeftLeg
		{
			OFFSET 0.000000 46.236332 -0.000006
			CHANNELS 6 Xposition Yposition Zposition Xrotation Yrotation Zrotation
			JOINT Haolin_V1:Solving:LeftFoot
			{
				OFFSET 0.000000 41.248135 -0.000006
				CHANNELS 6 Xposition Yposition Zposition Xrotation Yrotation Zrotation
				JOINT Haolin_V1:Solving:LeftForeFoot
				{
					OFFSET 0.000000 3.207336 -0.000000
					CHANNELS 6 Xposition Yposition Zposition Xrotation Yrotation Zrotation
					JOINT Haolin_V1:Solving:LeftToeBase
					{
						OFFSET 0.000000 0.000000 -12.560947
						CHANNELS 6 Xposition Yposition Zposition Xrotation Yrotation Zrotation
						JOINT Haolin_V1:Solving:LeftToeBaseEnd
						{
							OFFSET 0.000000 0.000000 -3.901837
							CHANNELS 6 Xposition Yposition Zposition Xrotation Yrotation Zrotation
							End Site
							{
								OFFSET 0.000000 -3.901840 0.000004
							}
						}
					}
				}
			}
		}
	}
}
MOTION
Frames: 4
Frame Time: 0.041667
-8.690193 -47.271988 -95.292671 87.922177 -18.765772 -1.574832 -0.000003 -12.731926 2.520527 10.261247 -0.635171 -2.032340 -0.000003 -8.486863 1.496464 -0.277663 -0.176454 -0.064574 0.000005 -8.584977 0.751083 -5.329162 -3.280417 0.185363 0.000002 -8.617743 -0.000006 -2.323978 -1.239216 2.221310 -0.000002 -11.079997 -1.107987 4.102375 6.768714 0.220453 -0.000001 -8.314002 -0.727380 3.989604 12.706874 -0.961373 0.000003 -8.218973 -1.449216 14.369536 0.911477 -2.310217 -0.000000 -9.728081 0.000011 0.000001 0.000000 0.000000 -0.000001 -7.914284 -5.288072 -0.000003 12.907836 11.285855 -20.201822 -0.000005 -0.000008 -29.660691 15.099783 -95.605587 -29.446444 -0.000016 0.000005 279.534071 -38.629689 285.057972 -23.111891 0.000002 0.000001 7.527338 -19.490710 21.605186 -3.824405 2.925513 -2.843784 0.000012 0.000003 -0.000004 -10.198349 0.000010 0.065366 0.000002 0.000004 -0.000000 -0.000001 -7.914276 -5.288068 -0.000001 -9.275316 -9.114197 20.201818 -0.000005 -0.000001 -13.005957 46.369758 95.240465 29.446451 -0.000016 -0.000004 28.266219 10.895697 -5.803238 23.111889 -0.000006 0.000001 0.584571 3.940550 -8.445017 3.824408 2.925474 -2.843757 0.000004 0.000000 -0.000002 10.198339 -0.000017 0.065373 -0.000004 0.000003 -0.000003 -10.695512 0.000020 0.000008 6.249148 15.536380 2.323764 -0.000001 46.236347 0.000003 -2.060856 -0.000000 -0.000001 -0.000006 41.248131 0.000001 -3.155367 2.748336 -5.413923 -0.000007 3.207336 0.000000 0.000000 -0.000000 -0.000000 0.000001 0.000003 -12.560950 8.292849 -0.000001 -0.000000 -0.000006 0.000007 -3.517777 -0.000001 -0.000000 -0.000000 10.695504 0.000014 0.000001 -0.393519 -9.801169 0.337938 0.000001 46.236317 -0.000006 3.895817 0.000005 -0.000000 -0.000003 41.248131 -0.000001 -1.265479 -6.845115 -2.009615 0.000002 3.207344 0.000001 -0.000000 -0.000001 0.000000 0.000006 -0.000002 -12.560951 14.218198 -0.000002 0.000001 0.000004 -0.000007 -3.901835 0.000002 -0.000001 -0.000000 
-8.688057 -47.278519 -95.291725 87.912990 -18.780869 -1.574704 0.000001 -12.731935 2.520518 10.270598 -0.636051 -2.007826 0.000001 -8.486872 1.496455 -0.276880 -0.180546 -0.059920 0.000003 -8.585005 0.751087 -5.346911 -3.323080 0.179047 -0.000003 -8.617772 -0.000013 -2.352747 -1.263141 2.201571 0.000001 -11.079975 -1.107992 4.118032 6.806719 0.245172 0.000001 -8.313965 -0.727383 3.990614 12.696517 -0.953495 0.000001 -8.218985 -1.449218 14.358714 0.910171 -2.302579 0.000002 -9.728073 -0.000005 0.000001 0.000000 0.000000 -0.000003 -7.914234 -5.288067 -0.000003 12.959752 11.298728 -20.201832 0.000030 -0.000001 -29.679617 15.103886 -95.629800 -29.446442 -0.000012 0.000010 279.544398 -39.091491 284.930521 -23.111877 0.000011 -0.000002 7.496476 -19.291137 21.717993 -3.824387 2.925479 -2.843755 0.000001 -0.000000 -0.000011 -10.198316 0.000013 0.065364 -0.000006 -0.000001 -0.000006 -0.000002 -7.914234 -5.288067 0.000001 -9.235451 -9.082476 20.201830 0.000011 0.000005 -12.954838 46.424973 95.245171 29.446478 -0.000015 0.000000 28.297190 10.894533 -5.810100 23.111900 -0.000011 -0.000011 0.573695 3.866297 -8.446775 3.824386 2.925479 -2.843757 0.000001 0.000007 -0.000000 10.198323 -0.000007 0.065381 0.000005 0.000002 -0.000004 -10.695505 0.000004 -0.000004 6.258919 15.531374 2.320569 -0.000004 46.236340 -0.000005 -2.063004 -0.000000 0.000000 -0.000007 41.248146 -0.000006 -3.164007 2.772699 -5.414020 -0.000001 3.207336 -0.000002 -0.000000 -0.000000 0.000000 0.000001 -0.000017 -12.560944 8.366481 -0.000001 0.000000 0.000001 0.000008 -3.517781 0.000001 -0.000000 -0.000000 10.695512 -0.000000 0.000001 -0.387537 -9.790176 0.337084 -0.000004 46.236359 -0.000011 3.889054 0.000005 -0.000000 -0.000004 41.248138 -0.000013 -1.264596 -6.839894 -1.995193 0.000002 3.207329 0.000003 0.000000 -0.000005 -0.000000 -0.000001 -0.000003 -12.560960 14.200785 0.000000 -0.000001 0.000002 0.000000 -3.901838 0.000001 0.000010 0.000001 
-8.687239 -47.287479 -95.290291 87.893634 -18.798907 -1.580916 -0.000001 -12.731927 2.520520 10.259626 -0.632798 -2.002480 -0.000002 -8.486835 1.496460 -0.273551 -0.179567 -0.056912 -0.000002 -8.585002 0.751084 -5.329593 -3.316069 0.187804 0.000000 -8.617770 0.000000 -2.315860 -1.252659 2.235808 -0.000001 -11.079988 -1.107990 4.064787 6.759938 0.222585 -0.000001 -8.314016 -0.727390 3.993107 12.672383 -0.931286 0.000002 -8.218960 -1.449219 14.340542 0.907990 -2.305380 0.000002 -9.728134 0.000006 0.000002 0.000000 0.000000 -0.000000 -7.914307 -5.288073 -0.000010 12.924422 11.279486 -20.201820 0.000041 -0.000012 -29.635795 14.755048 -95.574434 -29.446438 -0.000013 -0.000010 279.876946 -40.805493 284.918992 -23.111877 -0.000018 -0.000015 8.061149 -18.736099 23.793878 -3.824407 2.925470 -2.843740 0.000004 0.000007 -0.000006 -10.198350 -0.000018 0.065391 0.000000 0.000000 -0.000002 0.000001 -7.914295 -5.288073 -0.000005 -9.295362 -9.078951 20.201832 -0.000015 0.000013 -12.918115 46.330952 95.202401 29.446466 -0.000017 -0.000007 28.435186 10.915384 -5.854403 23.111902 -0.000013 -0.000002 0.571862 3.847732 -8.460257 3.824382 2.925474 -2.843752 0.000009 -0.000002 0.000003 10.198332 -0.000004 0.065380 0.000004 0.000003 -0.000003 -10.695509 0.000002 -0.000004 6.272859 15.540320 2.320167 -0.000002 46.236347 -0.000005 -2.060743 -0.000000 0.000000 -0.000009 41.248142 -0.000011 -3.167964 2.785935 -5.422019 -0.000005 3.207336 -0.000009 0.000000 -0.000000 -0.000000 -0.000002 0.000006 -12.560957 8.360006 -0.000000 -0.000000 -0.000000 0.000000 -3.517772 0.000002 0.000000 0.000000 10.695510 0.000006 -0.000004 -0.374872 -9.764578 0.340903 -0.000003 46.236343 -0.000007 3.886151 -0.000000 0.000000 -0.000003 41.248154 -0.000023 -1.262601 -6.848135 -2.005821 0.000001 3.207329 0.000002 0.000000 0.000003 -0.000000 0.000003 -0.000007 -12.560943 14.202343 -0.000000 -0.000002 -0.000001 -0.000007 -3.901838 0.000002 -0.000002 0.000001 
-8.684154 -47.294724 -95.290039 87.882808 -18.810734 -1.582011 -0.000001 -12.731938 2.520514 10.271792 -0.636733 -1.977085 0.000002 -8.486851 1.496456 -0.271685 -0.183441 -0.055314 -0.000002 -8.584980 0.751085 -5.353193 -3.355102 0.184914 0.000003 -8.617780 -0.000004 -2.358165 -1.276789 2.214640 0.000005 -11.080004 -1.107998 4.119320 6.797691 0.272677 -0.000001 -8.314013 -0.727364 3.991274 12.661539 -0.955987 -0.000001 -8.218941 -1.449229 14.324884 0.907489 -2.283231 0.000001 -9.728073 0.000006 0.000001 0.000000 -0.000000 0.000000 -7.914295 -5.288077 -0.000007 12.952004 11.282490 -20.201832 -0.000017 -0.000008 -29.637519 14.822170 -95.615258 -29.446451 -0.000004 -0.000007 280.220231 -42.339226 284.986064 -23.111876 -0.000032 -0.000004 8.167062 -17.905389 25.023115 -3.824384 2.925475 -2.843775 -0.000003 0.000007 -0.000007 -10.198326 -0.000020 0.065373 -0.000003 0.000000 0.000000 0.000001 -7.914295 -5.288077 -0.000004 -9.249756 -9.024853 20.201832 -0.000008 0.000000 -12.785995 46.259184 95.155347 29.446480 -0.000021 -0.000006 28.484488 10.919577 -5.868572 23.111868 -0.000009 0.000004 0.572739 3.858061 -8.450648 3.824391 2.925480 -2.843766 -0.000004 0.000000 0.000006 10.198357 0.000000 0.065374 -0.000009 -0.000000 0.000000 -10.695508 0.000015 0.000004 6.280245 15.542247 2.320322 0.000003 46.236343 -0.000008 -2.060413 -0.000000 0.000000 -0.000006 41.248142 0.000001 -3.168306 2.793821 -5.421306 -0.000001 3.207336 -0.000009 -0.000000 0.000000 -0.000000 -0.000009 -0.000001 -12.560963 8.356141 -0.000001 -0.000000 -0.000003 0.000007 -3.517777 -0.000002 0.000000 -0.000000 10.695511 0.000003 -0.000003 -0.366638 -9.759051 0.342241 -0.000005 46.236343 -0.000010 3.880073 0.000005 -0.000000 -0.000001 41.248138 -0.000006 -1.258953 -6.845487 -2.003029 -0.000003 3.207336 -0.000006 0.000000 -0.000008 0.000000 -0.000008 -0.000008 -12.560952 14.197457 -0.000000 0.000000 0.000006 -0.000000 -3.901836 0.000000 0.000004 -0.000001 
